<svg width="1448" height="966" viewBox="0 0 1448 966" fill="none" xmlns="http://www.w3.org/2000/svg">
<rect width="1448" height="966" rx="50" fill="white"/>
<path d="M624.176 130.088C624.176 126.461 624.816 123.197 626.096 120.296C627.376 117.352 629.125 114.856 631.344 112.808C633.605 110.76 636.272 109.181 639.344 108.072C642.416 106.963 645.744 106.408 649.328 106.408C652.912 106.408 656.24 106.963 659.312 108.072C662.384 109.181 665.051 110.76 667.312 112.808C669.573 114.856 671.344 117.352 672.624 120.296C673.904 123.197 674.544 126.461 674.544 130.088C674.544 133.715 673.904 137.021 672.624 140.008C671.344 142.995 669.573 145.555 667.312 147.688C665.051 149.779 662.384 151.4 659.312 152.552C656.24 153.704 652.912 154.28 649.328 154.28C645.744 154.28 642.416 153.704 639.344 152.552C636.272 151.4 633.605 149.779 631.344 147.688C629.125 145.555 627.376 142.995 626.096 140.008C624.816 137.021 624.176 133.715 624.176 130.088ZM640.368 130.088C640.368 131.581 640.581 132.947 641.008 134.184C641.477 135.421 642.096 136.488 642.864 137.384C643.675 138.28 644.635 138.984 645.744 139.496C646.853 139.965 648.048 140.2 649.328 140.2C650.608 140.2 651.781 139.965 652.848 139.496C653.957 138.984 654.917 138.28 655.728 137.384C656.539 136.488 657.157 135.421 657.584 134.184C658.053 132.947 658.288 131.581 658.288 130.088C658.288 128.637 658.053 127.315 657.584 126.12C657.157 124.883 656.539 123.859 655.728 123.048C654.917 122.195 653.957 121.533 652.848 121.064C651.781 120.595 650.608 120.36 649.328 120.36C648.048 120.36 646.853 120.595 645.744 121.064C644.635 121.533 643.675 122.195 642.864 123.048C642.096 123.859 641.477 124.883 641.008 126.12C640.581 127.315 640.368 128.637 640.368 130.088ZM717.198 136.04C717.198 138.941 716.665 141.523 715.598 143.784C714.574 146.045 713.166 147.965 711.374 149.544C709.625 151.08 707.577 152.253 705.23 153.064C702.926 153.875 700.494 154.28 697.934 154.28C695.417 154.28 692.985 153.875 690.638 153.064C688.334 152.253 686.307 151.08 684.558 149.544C682.809 147.965 681.401 146.045 680.334 143.784C679.31 141.523 678.798 138.941 678.798 136.04C678.798 133.181 679.31 130.643 680.334 128.424C681.401 126.163 682.809 124.264 684.558 122.728C686.307 121.192 688.334 120.04 690.638 119.272C692.985 118.461 695.417 118.056 697.934 118.056C700.494 118.056 702.926 118.461 705.23 119.272C707.577 120.04 709.625 121.192 711.374 122.728C713.166 124.264 714.574 126.163 715.598 128.424C716.665 130.643 717.198 133.181 717.198 136.04ZM697.934 130.472C696.313 130.472 694.99 131.027 693.966 132.136C692.985 133.245 692.494 134.547 692.494 136.04C692.494 137.619 693.006 138.963 694.03 140.072C695.054 141.181 696.377 141.736 697.998 141.736C699.619 141.736 700.942 141.181 701.966 140.072C702.99 138.963 703.502 137.619 703.502 136.04C703.502 134.547 702.969 133.245 701.902 132.136C700.878 131.027 699.555 130.472 697.934 130.472ZM746.322 153.896C744.658 153.896 743.015 153.597 741.394 153C739.773 152.36 738.45 151.485 737.426 150.376H737.298V168.36H722.642V119.336H736.53V122.728H736.658C737.895 121.32 739.389 120.253 741.138 119.528C742.887 118.803 744.594 118.44 746.258 118.44C748.775 118.44 750.994 118.952 752.914 119.976C754.834 121 756.434 122.344 757.714 124.008C758.994 125.672 759.954 127.549 760.594 129.64C761.277 131.731 761.618 133.864 761.618 136.04C761.618 138.259 761.277 140.435 760.594 142.568C759.954 144.701 758.994 146.621 757.714 148.328C756.434 149.992 754.834 151.336 752.914 152.36C751.037 153.384 748.839 153.896 746.322 153.896ZM747.922 136.04C747.922 134.547 747.453 133.245 746.514 132.136C745.575 131.027 744.21 130.472 742.418 130.472C740.669 130.472 739.261 131.027 738.194 132.136C737.17 133.245 736.658 134.547 736.658 136.04C736.658 137.619 737.17 138.963 738.194 140.072C739.261 141.181 740.669 141.736 742.418 141.736C744.21 141.736 745.575 141.203 746.514 140.136C747.453 139.027 747.922 137.661 747.922 136.04ZM794.664 142.312C794.664 144.573 794.173 146.472 793.192 148.008C792.253 149.544 791.037 150.781 789.544 151.72C788.093 152.616 786.493 153.256 784.744 153.64C782.994 154.067 781.33 154.28 779.752 154.28C776.85 154.28 773.992 153.853 771.176 153C768.402 152.189 765.992 151.016 763.944 149.48L771.176 141.096C772.2 142.035 773.394 142.803 774.76 143.4C776.168 143.955 777.512 144.232 778.792 144.232C779.304 144.232 779.773 144.147 780.2 143.976C780.669 143.763 780.904 143.4 780.904 142.888C780.904 142.333 780.498 141.907 779.688 141.608C778.92 141.267 777.554 140.861 775.592 140.392C774.525 140.136 773.437 139.773 772.328 139.304C771.218 138.792 770.194 138.131 769.256 137.32C768.36 136.509 767.613 135.528 767.016 134.376C766.418 133.181 766.12 131.773 766.12 130.152C766.12 127.976 766.589 126.12 767.528 124.584C768.509 123.048 769.725 121.811 771.176 120.872C772.669 119.891 774.269 119.187 775.976 118.76C777.725 118.291 779.368 118.056 780.904 118.056C783.506 118.056 786.088 118.44 788.648 119.208C791.208 119.976 793.512 121.043 795.56 122.408L788.648 130.664C787.581 129.981 786.493 129.448 785.384 129.064C784.274 128.68 783.186 128.488 782.12 128.488C781.394 128.488 780.797 128.595 780.328 128.808C779.858 128.979 779.624 129.341 779.624 129.896C779.624 130.323 779.88 130.664 780.392 130.92C780.946 131.133 782.184 131.432 784.104 131.816C785.426 132.072 786.706 132.477 787.944 133.032C789.224 133.544 790.354 134.227 791.336 135.08C792.36 135.891 793.17 136.893 793.768 138.088C794.365 139.283 794.664 140.691 794.664 142.312ZM810.836 154.024C809.727 154.024 808.681 153.811 807.7 153.384C806.761 153 805.929 152.467 805.204 151.784C804.479 151.101 803.903 150.291 803.476 149.352C803.092 148.413 802.9 147.389 802.9 146.28C802.9 145.213 803.092 144.211 803.476 143.272C803.903 142.333 804.479 141.523 805.204 140.84C805.929 140.115 806.761 139.56 807.7 139.176C808.681 138.749 809.727 138.536 810.836 138.536C811.945 138.536 812.969 138.749 813.908 139.176C814.889 139.56 815.743 140.115 816.468 140.84C817.193 141.523 817.748 142.333 818.132 143.272C818.559 144.211 818.772 145.213 818.772 146.28C818.772 147.389 818.559 148.413 818.132 149.352C817.748 150.291 817.193 151.101 816.468 151.784C815.743 152.467 814.889 153 813.908 153.384C812.969 153.811 811.945 154.024 810.836 154.024ZM803.156 107.688H818.516V136.36H803.156V107.688Z" fill="black"/>
<g clip-path="url(#clip0_6_330)">
<path d="M548.973 606.077H504.503V684.125H396.682V606.077H236V526.35L403.814 280.875H504.503V524.671H548.973V606.077ZM396.682 524.671V477.674C396.682 468.862 397.102 457.113 397.521 442.007C398.36 426.901 398.78 419.348 399.199 418.508H396.262C389.969 432.775 382.837 445.783 374.866 458.372L330.395 524.671H396.682Z" fill="#FFDC93"/>
<path d="M868.659 483.129C868.659 554.464 856.493 606.916 832.999 640.066C809.085 673.215 772.586 690 723.08 690C674.834 690 638.754 672.796 614.001 637.968C589.668 603.14 577.502 551.527 577.502 483.129C577.502 411.375 589.249 358.923 613.582 325.354C637.495 291.785 673.995 275 723.5 275C771.327 275 807.827 292.624 832.16 327.452C856.493 362.28 868.659 413.893 868.659 483.129ZM685.742 483.129C685.742 528.868 688.679 560.339 694.133 577.123C700.006 594.328 709.236 602.72 722.661 602.72C736.086 602.72 745.735 593.908 751.609 576.284C757.063 558.66 760 527.609 760 483.129C760 438.231 757.063 407.179 751.609 389.135C745.735 371.092 736.506 362.28 723.08 362.28C709.655 362.28 700.006 371.092 694.552 388.296C688.679 405.501 685.742 436.972 685.742 483.129Z" fill="#FFDC93"/>
<path d="M1211 606.077H1166.53V684.125H1058.71V606.077H898.027V526.35L1065.84 280.875H1166.53V524.671H1211V606.077ZM1059.13 524.671V477.674C1059.13 468.862 1059.55 457.113 1059.97 442.007C1060.81 426.901 1061.23 419.348 1061.65 418.508H1058.71C1052.42 432.775 1045.28 445.783 1037.31 458.372L992.422 525.091H1059.13V524.671Z" fill="#FFDC93"/>
</g>
<g clip-path="url(#clip1_6_330)">
<path d="M830.206 493.66C863.119 493.66 889.8 466.942 889.8 433.982C889.8 401.023 863.119 374.304 830.206 374.304C797.293 374.304 770.612 401.023 770.612 433.982C770.612 466.942 797.293 493.66 830.206 493.66Z" fill="white"/>
<path d="M634.139 493.66C667.052 493.66 693.734 466.942 693.734 433.982C693.734 401.023 667.052 374.304 634.139 374.304C601.226 374.304 574.545 401.023 574.545 433.982C574.545 466.942 601.226 493.66 634.139 493.66Z" fill="white"/>
<path d="M669.176 385.817C675.277 395.215 678.796 406.336 678.796 418.397C678.796 451.369 652.127 478.075 619.202 478.075C606.063 478.075 593.941 473.768 584.086 466.563C594.723 482.931 613.101 493.66 634.061 493.66C666.987 493.66 693.655 466.954 693.655 433.982C693.655 414.246 684.036 396.703 669.176 385.817Z" fill="#EFEFEF"/>
<path d="M865.243 385.817C871.343 395.215 874.863 406.336 874.863 418.397C874.863 451.369 848.194 478.075 815.268 478.075C802.129 478.075 790.007 473.768 780.153 466.563C790.789 482.931 809.168 493.66 830.128 493.66C863.053 493.66 889.722 466.954 889.722 433.982C889.722 414.246 880.024 396.703 865.243 385.817Z" fill="#EFEFEF"/>
<path d="M634.139 496.48C599.806 496.48 571.808 468.442 571.808 434.061C571.808 399.68 599.806 371.642 634.139 371.642C668.473 371.642 696.471 399.68 696.471 434.061C696.471 468.442 668.473 496.48 634.139 496.48ZM634.139 377.046C602.778 377.046 577.282 402.577 577.282 433.983C577.282 465.388 602.778 490.92 634.139 490.92C665.501 490.92 690.996 465.388 690.996 433.983C690.996 402.656 665.501 377.046 634.139 377.046Z" fill="#231F20"/>
<path d="M612.945 443.616C628.883 443.616 641.804 430.677 641.804 414.716C641.804 398.756 628.883 385.817 612.945 385.817C597.007 385.817 584.086 398.756 584.086 414.716C584.086 430.677 597.007 443.616 612.945 443.616Z" fill="#231F20"/>
<path d="M605.906 421.295C612.428 421.295 617.716 416 617.716 409.469C617.716 402.938 612.428 397.643 605.906 397.643C599.384 397.643 594.097 402.938 594.097 409.469C594.097 416 599.384 421.295 605.906 421.295Z" fill="white"/>
<path d="M830.206 496.48C795.873 496.48 767.875 468.442 767.875 434.061C767.875 399.68 795.873 371.642 830.206 371.642C864.539 371.642 892.538 399.68 892.538 434.061C892.538 468.442 864.539 496.48 830.206 496.48ZM830.206 377.046C798.845 377.046 773.349 402.577 773.349 433.983C773.349 465.388 798.845 490.92 830.206 490.92C861.567 490.92 887.063 465.388 887.063 433.983C887.063 402.656 861.567 377.046 830.206 377.046Z" fill="#231F20"/>
<path d="M848.037 483.323C863.976 483.323 876.896 470.384 876.896 454.423C876.896 438.463 863.976 425.524 848.037 425.524C832.099 425.524 819.179 438.463 819.179 454.423C819.179 470.384 832.099 483.323 848.037 483.323Z" fill="#231F20"/>
<path d="M840.999 461.002C847.521 461.002 852.808 455.707 852.808 449.176C852.808 442.645 847.521 437.35 840.999 437.35C834.477 437.35 829.189 442.645 829.189 449.176C829.189 455.707 834.477 461.002 840.999 461.002Z" fill="white"/>
<path d="M557.887 352.846C567.976 364.437 577.048 343.447 608.253 336.869C634.296 331.387 650.563 344.466 655.099 334.598C659.635 324.73 638.832 310.946 600.51 317.054C571.964 321.519 546.156 339.375 557.887 352.846Z" fill="#231F20"/>
<path d="M905.677 354.725C894.962 365.768 887.063 344.309 856.249 336.007C830.519 329.115 813.548 341.255 809.559 331.152C805.571 321.049 827.078 308.439 865.009 316.584C893.32 322.693 918.112 341.881 905.677 354.725Z" fill="#231F20"/>
<path d="M723.374 627.192C704.292 627.192 689.823 610.432 675.668 594.064C662.842 579.183 649.546 563.755 633.826 563.05C598.398 561.405 559.998 611.215 559.607 611.685C557.652 614.27 553.976 614.74 551.396 612.782C548.815 610.824 548.345 607.143 550.301 604.558C552.021 602.365 591.36 551.302 632.106 551.302C632.888 551.302 633.592 551.302 634.374 551.381C655.099 552.399 670.037 569.707 684.505 586.467C699.834 604.245 713.129 619.595 730.257 614.426C746.524 609.492 760.992 593.907 775.07 578.87C792.666 559.996 810.811 540.495 833.178 542.922C854.607 545.272 872.204 558.351 884.17 580.75C892.929 597.197 895.51 612.86 895.588 613.487C896.135 616.698 893.945 619.674 890.739 620.222C887.532 620.77 884.561 618.577 884.013 615.366C883.935 614.818 874.315 559.134 831.927 554.592C815.425 552.79 800.018 569.394 783.673 586.859C768.578 602.992 753.015 619.752 733.698 625.626C730.1 626.644 726.659 627.192 723.374 627.192Z" fill="#231F20"/>
<path d="M534.424 593.907C529.967 605.028 531.844 618.342 538.648 628.132C540.603 630.951 542.871 633.458 545.608 635.572C546.468 636.277 547.642 636.434 548.424 635.572C549.128 634.867 549.284 633.379 548.424 632.753C539.743 625.939 535.285 614.818 536.145 603.854C536.38 600.799 537.162 597.823 538.257 594.925C538.648 593.907 537.787 592.732 536.849 592.419C535.754 592.184 534.815 592.889 534.424 593.907Z" fill="#231F20"/>
<path d="M888.705 637.843C895.822 639.018 902.314 634.476 906.771 629.307C910.995 624.373 914.045 618.264 915.296 611.92C916 608.239 916.235 604.48 915.844 600.799C915.765 599.703 914.983 598.763 913.81 598.763C912.793 598.763 911.699 599.703 911.777 600.799C912.95 611.999 908.336 624.451 899.029 631.108C896.37 632.988 893.085 634.554 889.722 634.006C888.627 633.849 887.532 634.319 887.22 635.416C887.063 636.355 887.611 637.687 888.705 637.843Z" fill="#231F20"/>
</g>
<defs>
<clipPath id="clip0_6_330">
<rect width="975" height="415" fill="white" transform="translate(236 275)"/>
</clipPath>
<clipPath id="clip1_6_330">
<rect width="384" height="324" fill="white" transform="translate(532 314)"/>
</clipPath>
</defs>
</svg>
